<svg width="20" height="20" viewBox="0 0 20 20" fill="none" xmlns="http://www.w3.org/2000/svg">
<path d="M7.50837 17.7083C7.35003 17.7083 7.1917 17.65 7.0667 17.525L2.8917 13.35C2.65003 13.1083 2.65003 12.7083 2.8917 12.4667C3.13337 12.225 3.53337 12.225 3.77503 12.4667L7.95003 16.6417C8.1917 16.8833 8.1917 17.2833 7.95003 17.525C7.82503 17.6417 7.6667 17.7083 7.50837 17.7083Z" fill="#718096"/>
<path d="M7.5083 17.7083C7.16663 17.7083 6.8833 17.425 6.8833 17.0833V2.91663C6.8833 2.57496 7.16663 2.29163 7.5083 2.29163C7.84997 2.29163 8.1333 2.57496 8.1333 2.91663V17.0833C8.1333 17.425 7.84997 17.7083 7.5083 17.7083Z" fill="#718096"/>
<path d="M16.6751 7.71662C16.5168 7.71662 16.3584 7.65828 16.2334 7.53328L12.0584 3.35828C11.8168 3.11662 11.8168 2.71662 12.0584 2.47495C12.3001 2.23328 12.7001 2.23328 12.9418 2.47495L17.1168 6.64995C17.3584 6.89162 17.3584 7.29162 17.1168 7.53328C16.9918 7.65828 16.8334 7.71662 16.6751 7.71662Z" fill="#718096"/>
<path d="M12.4917 17.7083C12.15 17.7083 11.8667 17.425 11.8667 17.0833V2.91663C11.8667 2.57496 12.15 2.29163 12.4917 2.29163C12.8334 2.29163 13.1167 2.57496 13.1167 2.91663V17.0833C13.1167 17.425 12.8417 17.7083 12.4917 17.7083Z" fill="#718096"/>
</svg>
