<svg width="17" height="16" viewBox="0 0 17 16" fill="none" xmlns="http://www.w3.org/2000/svg">
<path d="M6.66602 11.8334C6.59935 11.8334 6.53935 11.82 6.47268 11.7934C6.28602 11.72 6.16602 11.5334 6.16602 11.3334V7.33337C6.16602 7.06004 6.39268 6.83337 6.66602 6.83337C6.93935 6.83337 7.16602 7.06004 7.16602 7.33337V10.1267L7.64602 9.64671C7.83935 9.45337 8.15935 9.45337 8.35268 9.64671C8.54602 9.84004 8.54602 10.16 8.35268 10.3534L7.01935 11.6867C6.92602 11.78 6.79268 11.8334 6.66602 11.8334Z" fill="#0A66E6"/>
<path d="M6.66565 11.8334C6.53898 11.8334 6.41232 11.7867 6.31232 11.6867L4.97898 10.3534C4.78565 10.16 4.78565 9.84004 4.97898 9.64671C5.17232 9.45338 5.49232 9.45338 5.68565 9.64671L7.01898 10.98C7.21232 11.1734 7.21232 11.4934 7.01898 11.6867C6.91898 11.7867 6.79232 11.8334 6.66565 11.8334Z" fill="#0A66E6"/>
<path d="M10.6667 15.1667H6.66667C3.04667 15.1667 1.5 13.62 1.5 10V6.00004C1.5 2.38004 3.04667 0.833374 6.66667 0.833374H10C10.2733 0.833374 10.5 1.06004 10.5 1.33337C10.5 1.60671 10.2733 1.83337 10 1.83337H6.66667C3.59333 1.83337 2.5 2.92671 2.5 6.00004V10C2.5 13.0734 3.59333 14.1667 6.66667 14.1667H10.6667C13.74 14.1667 14.8333 13.0734 14.8333 10V6.66671C14.8333 6.39337 15.06 6.16671 15.3333 6.16671C15.6067 6.16671 15.8333 6.39337 15.8333 6.66671V10C15.8333 13.62 14.2867 15.1667 10.6667 15.1667Z" fill="#0A66E6"/>
<path d="M15.3333 7.1667H12.6667C10.3867 7.1667 9.5 6.28003 9.5 4.00003V1.33337C9.5 1.13337 9.62 0.9467 9.80667 0.873366C9.99333 0.793366 10.2067 0.840033 10.3533 0.980033L15.6867 6.31337C15.8267 6.45337 15.8733 6.67337 15.7933 6.86003C15.7133 7.0467 15.5333 7.1667 15.3333 7.1667ZM10.5 2.54003V4.00003C10.5 5.72003 10.9467 6.1667 12.6667 6.1667H14.1267L10.5 2.54003Z" fill="#0A66E6"/>
</svg>
