<svg width="20" height="21" viewBox="0 0 20 21" fill="none" xmlns="http://www.w3.org/2000/svg">
<path d="M14.8253 19.4584H5.17533C2.89199 19.4584 1.04199 17.6001 1.04199 15.3167V9.14173C1.04199 8.00839 1.74199 6.58339 2.64199 5.88339L7.13366 2.38339C8.48366 1.33339 10.642 1.28339 12.042 2.26673L17.192 5.87506C18.1837 6.56673 18.9587 8.05006 18.9587 9.25839V15.3251C18.9587 17.6001 17.1087 19.4584 14.8253 19.4584ZM7.90033 3.36673L3.40866 6.86673C2.81699 7.33339 2.29199 8.39173 2.29199 9.14173V15.3167C2.29199 16.9084 3.58366 18.2084 5.17533 18.2084H14.8253C16.417 18.2084 17.7087 16.9167 17.7087 15.3251V9.25839C17.7087 8.45839 17.1337 7.35006 16.4753 6.90006L11.3253 3.29173C10.3753 2.62506 8.80866 2.65839 7.90033 3.36673Z" fill="#718096"/>
<path d="M10 16.125C9.65833 16.125 9.375 15.8417 9.375 15.5V13C9.375 12.6583 9.65833 12.375 10 12.375C10.3417 12.375 10.625 12.6583 10.625 13V15.5C10.625 15.8417 10.3417 16.125 10 16.125Z" fill="#718096"/>
</svg>
